<mxfile host="app.diagrams.net" modified="2024-06-05T16:18:34.078Z" agent="Mozilla/5.0 (Macintosh; Intel Mac OS X 10_15_7) AppleWebKit/537.36 (KHTML, like Gecko) Chrome/125.0.0.0 Safari/537.36" etag="stw7WVS_JbliYI9nHw0I" version="24.4.0" type="github">
  <diagram name="第 1 页" id="HZvCl94HwazwVe67dxtm">
    <mxGraphModel dx="2074" dy="1036" grid="1" gridSize="14" guides="1" tooltips="1" connect="1" arrows="1" fold="1" page="1" pageScale="1" pageWidth="1169" pageHeight="1654" math="0" shadow="0">
      <root>
        <mxCell id="0" />
        <mxCell id="1" parent="0" />
        <mxCell id="5IshEcCLf8wRS6q8omwp-6" style="edgeStyle=orthogonalEdgeStyle;rounded=0;orthogonalLoop=1;jettySize=auto;html=1;entryX=0;entryY=0.5;entryDx=0;entryDy=0;labelBackgroundColor=none;strokeColor=#E07A5F;fontColor=default;sketch=1;curveFitting=1;jiggle=2;" edge="1" parent="1" target="5IshEcCLf8wRS6q8omwp-3">
          <mxGeometry relative="1" as="geometry">
            <mxPoint x="160" y="455" as="sourcePoint" />
          </mxGeometry>
        </mxCell>
        <mxCell id="5IshEcCLf8wRS6q8omwp-3" value="&lt;font style=&quot;font-size: 16px;&quot;&gt;1、服务端收到用户名密码进行验证&lt;/font&gt;&lt;div style=&quot;font-size: 16px;&quot;&gt;&lt;font style=&quot;font-size: 16px;&quot;&gt;2、生成uuid 作为生成token的唯一标识&lt;/font&gt;&lt;/div&gt;&lt;div style=&quot;font-size: 16px;&quot;&gt;&lt;font style=&quot;font-size: 16px;&quot;&gt;3、根据uuid和用户信息(id,username)生成JWT token 并设置过期时间&lt;/font&gt;&lt;/div&gt;&lt;div style=&quot;font-size: 16px;&quot;&gt;&lt;font style=&quot;font-size: 16px;&quot;&gt;4、将uuid和用户信息缓存到Redis，并设置过期时间&lt;/font&gt;&lt;/div&gt;&lt;div style=&quot;font-size: 16px;&quot;&gt;&lt;font style=&quot;font-size: 16px;&quot;&gt;5、将生成的Token 返回前端&lt;/font&gt;&lt;/div&gt;" style="rounded=0;whiteSpace=wrap;html=1;align=left;horizontal=1;verticalAlign=top;fontSize=16;labelBackgroundColor=none;fillColor=#F2CC8F;strokeColor=#E07A5F;sketch=1;curveFitting=1;jiggle=2;fontColor=#393C56;" vertex="1" parent="1">
          <mxGeometry x="322" y="320" width="298" height="270" as="geometry" />
        </mxCell>
        <mxCell id="5IshEcCLf8wRS6q8omwp-8" value="Server" style="text;html=1;align=center;verticalAlign=middle;resizable=0;points=[];autosize=1;strokeColor=none;fillColor=none;rounded=0;labelBackgroundColor=none;fontColor=#393C56;sketch=1;curveFitting=1;jiggle=2;" vertex="1" parent="1">
          <mxGeometry x="410" y="280" width="60" height="30" as="geometry" />
        </mxCell>
        <mxCell id="5IshEcCLf8wRS6q8omwp-12" value="Client" style="whiteSpace=wrap;html=1;aspect=fixed;hachureGap=4;fontFamily=Architects Daughter;fontSource=https%3A%2F%2Ffonts.googleapis.com%2Fcss%3Ffamily%3DArchitects%2BDaughter;fontSize=16;labelBackgroundColor=none;fillColor=#F2CC8F;strokeColor=#E07A5F;fontColor=#393C56;sketch=1;curveFitting=1;jiggle=2;" vertex="1" parent="1">
          <mxGeometry x="70" y="415" width="80" height="80" as="geometry" />
        </mxCell>
        <mxCell id="5IshEcCLf8wRS6q8omwp-13" value="redis" style="shape=cylinder3;whiteSpace=wrap;html=1;boundedLbl=1;backgroundOutline=1;size=15;hachureGap=4;strokeColor=#E07A5F;fontFamily=Architects Daughter;fontSource=https%3A%2F%2Ffonts.googleapis.com%2Fcss%3Ffamily%3DArchitects%2BDaughter;fontColor=#393C56;fillColor=#F2CC8F;fontSize=16;sketch=1;curveFitting=1;jiggle=2;labelBackgroundColor=none;" vertex="1" parent="1">
          <mxGeometry x="714" y="406" width="60" height="80" as="geometry" />
        </mxCell>
        <mxCell id="5IshEcCLf8wRS6q8omwp-14" value="用户名密码登录" style="text;html=1;align=center;verticalAlign=middle;whiteSpace=wrap;rounded=0;fontFamily=Architects Daughter;fontSource=https%3A%2F%2Ffonts.googleapis.com%2Fcss%3Ffamily%3DArchitects%2BDaughter;fontColor=#393C56;sketch=1;curveFitting=1;jiggle=2;labelBackgroundColor=none;" vertex="1" parent="1">
          <mxGeometry x="182" y="415" width="98" height="30" as="geometry" />
        </mxCell>
      </root>
    </mxGraphModel>
  </diagram>
</mxfile>
